<svg width="60" height="60" viewBox="0 0 60 60" fill="none" xmlns="http://www.w3.org/2000/svg">
<path d="M54.1665 2.3999V10.3342M36.9861 49.6656V57.5999M50.7335 4.38348L57.5995 8.35062M33.553 51.6492L40.4191 55.6163M57.5995 4.38348L50.7335 8.35062M40.4191 51.6492L33.553 55.6163M2.51953 38.3309H18.5459C20.9055 38.3876 25.6248 39.8384 25.6248 45.1884C25.6248 50.5384 22.0004 51.5736 20.1882 51.4225C18.3949 51.3469 14.8083 50.1643 14.8083 46.0385M43.5666 40.1693C43.5666 45.5219 48.2081 47.0561 50.5288 47.1542C52.874 47.3502 57.5643 46.0072 57.5643 39.0664C57.5643 32.1257 51.4571 30.2435 48.4035 30.1699H7.50301M28.0599 14.145C28.0599 10.0192 31.6465 8.83662 33.4398 8.76106C35.2519 8.60993 38.8763 9.64516 38.8763 14.9951C38.8763 20.3451 34.1571 21.796 31.7975 21.8526H2.57616M51.335 21.8956H44.1995M9.76823 12.1477H2.63279M57.4511 21.8956H57.3378M15.8843 12.1477H15.7711M33.6663 38.3309H33.553M8.06931 52.4993H7.95605M13.8456 57.2599H13.7324" stroke="#0D2833" stroke-width="2" stroke-linecap="round"/>
</svg>
