<svg width="60" height="62" viewBox="0 0 60 62" fill="none" xmlns="http://www.w3.org/2000/svg">
<path d="M33.8398 6.98783L49.1998 15.8559M10.8598 15.9599L26.3998 6.98783M7.77639 39.8801V21.4001M26.3998 54.2923L10.8598 45.3203M49.1998 45.4242L33.8399 54.2923M52.4633 21.4001V39.8801M26.3998 52.7201H33.8398V60.1601H26.3998V52.7201ZM26.3998 1.84009H33.8398V9.28009H26.3998V1.84009ZM27.7993 15.4001C27.4842 15.4001 27.2228 15.6438 27.2008 15.9582L26.9663 19.3077C26.0388 19.5652 25.1574 19.9336 24.3373 20.3976L21.8023 18.1943C21.5644 17.9876 21.2072 18.0001 20.9844 18.2229L17.7027 21.5046C17.4799 21.7275 17.4674 22.0847 17.6741 22.3225L19.8774 24.8575C19.4134 25.6776 19.045 26.559 18.7875 27.4866L15.4379 27.721C15.1236 27.743 14.8798 28.0044 14.8798 28.3196V32.9606C14.8798 33.2757 15.1236 33.5371 15.4379 33.5592L18.7875 33.7936C19.045 34.7211 19.4134 35.6025 19.8774 36.4227L17.6741 38.9577C17.4674 39.1955 17.4799 39.5527 17.7027 39.7755L20.9844 43.0573C21.2072 43.2801 21.5644 43.2926 21.8023 43.0858L24.3373 40.8825C25.1574 41.3466 26.0388 41.7149 26.9663 41.9725L27.2008 45.322C27.2228 45.6363 27.4842 45.8801 27.7993 45.8801H32.4404C32.7555 45.8801 33.0169 45.6363 33.0389 45.322L33.2734 41.9725C34.2009 41.7149 35.0823 41.3466 35.9024 40.8825L38.4374 43.0858C38.6753 43.2926 39.0325 43.2801 39.2553 43.0573L42.537 39.7755C42.7598 39.5527 42.7723 39.1955 42.5656 38.9577L40.3623 36.4227C40.8263 35.6025 41.1947 34.7211 41.4522 33.7936L44.8017 33.5592C45.1161 33.5371 45.3598 33.2757 45.3598 32.9606V28.3196C45.3598 28.0044 45.1161 27.743 44.8017 27.721L41.4522 27.4866C41.1947 26.559 40.8263 25.6776 40.3623 24.8575L42.5656 22.3225C42.7723 22.0847 42.7598 21.7275 42.537 21.5046L39.2553 18.2229C39.0325 18.0001 38.6753 17.9876 38.4374 18.1943L35.9024 20.3976C35.0823 19.9336 34.2009 19.5652 33.2734 19.3077L33.0389 15.9582C33.0169 15.6438 32.7555 15.4001 32.4404 15.4001H27.7993ZM11.2798 17.6801C11.2798 19.7346 9.61434 21.4001 7.55984 21.4001C5.50534 21.4001 3.83984 19.7346 3.83984 17.6801C3.83984 15.6256 5.50534 13.9601 7.55984 13.9601C9.61434 13.9601 11.2798 15.6256 11.2798 17.6801ZM56.1598 17.6801C56.1598 19.7346 54.4943 21.4001 52.4398 21.4001C50.3853 21.4001 48.7198 19.7346 48.7198 17.6801C48.7198 15.6256 50.3853 13.9601 52.4398 13.9601C54.4943 13.9601 56.1598 15.6256 56.1598 17.6801ZM35.0398 30.6401C35.0398 33.3573 32.8371 35.5601 30.1198 35.5601C27.4026 35.5601 25.1998 33.3573 25.1998 30.6401C25.1998 27.9228 27.4026 25.7201 30.1198 25.7201C32.8371 25.7201 35.0398 27.9228 35.0398 30.6401ZM11.2798 43.6001C11.2798 45.6546 9.61434 47.3201 7.55984 47.3201C5.50534 47.3201 3.83984 45.6546 3.83984 43.6001C3.83984 41.5456 5.50534 39.8801 7.55984 39.8801C9.61434 39.8801 11.2798 41.5456 11.2798 43.6001ZM56.1598 43.6001C56.1598 45.6546 54.4943 47.3201 52.4398 47.3201C50.3853 47.3201 48.7198 45.6546 48.7198 43.6001C48.7198 41.5456 50.3853 39.8801 52.4398 39.8801C54.4943 39.8801 56.1598 41.5456 56.1598 43.6001Z" stroke="white" stroke-width="2"/>
</svg>
