<svg width="60" height="62" viewBox="0 0 60 62" fill="none" xmlns="http://www.w3.org/2000/svg">
<path d="M11.2803 27.8C14.594 27.8 17.2803 25.1137 17.2803 21.8C17.2803 18.4862 14.594 15.8 11.2803 15.8C7.96656 15.8 5.28027 18.4862 5.28027 21.8C5.28027 25.1137 7.96656 27.8 11.2803 27.8ZM11.2803 27.8V39.08C11.2803 39.7427 11.8175 40.28 12.4803 40.28H30.4803M30.4803 3.19995L25.6803 14M30.4803 3.19995L35.2803 14M30.4803 3.19995V31.46M30.4803 48.74V40.28M30.4803 40.28V31.46M30.4803 31.46H47.4003C48.063 31.46 48.6003 30.9227 48.6003 30.26V27.8M36.6003 54.8C36.6003 58.1137 33.914 60.8 30.6003 60.8C27.2866 60.8 24.6003 58.1137 24.6003 54.8C24.6003 51.4862 27.2866 48.8 30.6003 48.8C33.914 48.8 36.6003 51.4862 36.6003 54.8ZM43.8003 27.8H53.4003C54.063 27.8 54.6003 27.2627 54.6003 26.6V17C54.6003 16.3372 54.063 15.8 53.4003 15.8H43.8003C43.1375 15.8 42.6003 16.3372 42.6003 17V26.6C42.6003 27.2627 43.1375 27.8 43.8003 27.8Z" stroke="#0D2833" stroke-width="2" stroke-linecap="round"/>
</svg>
