<svg width="60" height="60" viewBox="0 0 60 60" fill="none" xmlns="http://www.w3.org/2000/svg">
<path d="M31.9001 2.76001C35.4544 3.01134 38.8209 3.9407 41.8705 5.41923M45.2875 7.38756C48.2396 9.37844 50.6894 11.8629 52.5896 14.6648M54.5624 18.0741C56.1214 21.2711 56.998 24.6449 57.2396 28.0194M57.2397 31.9562C56.9878 35.5026 56.0564 38.8618 54.5746 41.9047M52.6019 45.3141C50.6066 48.2598 48.1168 50.7042 45.3087 52.6002M41.8918 54.5686C38.6878 56.1242 35.3066 56.9989 31.9247 57.2399M27.9792 57.24C24.4249 56.9887 21.0584 56.0593 18.0088 54.5808M14.5918 52.6125C11.6397 50.6216 9.1899 48.1372 7.28974 45.3353M5.31692 41.9259C3.75792 38.7289 2.88129 35.3552 2.63973 31.9807M2.63965 28.0438C2.89153 24.4974 3.82294 21.1383 5.30472 18.0953M7.27739 14.6859C9.27266 11.7402 11.7625 9.29584 14.5706 7.39985M17.9875 5.43137C21.1915 3.8758 24.5727 3.00109 27.9546 2.76007M25.4586 29.9655H34.4207M29.9396 25.4942L29.9396 34.4367M45.7355 29.9655C45.7355 38.6701 38.6634 45.7266 29.9396 45.7266C21.2159 45.7266 14.1438 38.6701 14.1438 29.9655C14.1438 21.2609 21.2159 14.2044 29.9396 14.2044C38.6634 14.2044 45.7355 21.2609 45.7355 29.9655Z" stroke="white" stroke-width="2" stroke-linecap="round"/>
</svg>
