<svg width="80" height="80" viewBox="0 0 80 80" fill="none" xmlns="http://www.w3.org/2000/svg">
<g clip-path="url(#clip0_675_3377)">
<path d="M5.08799 7.6588C4.04103 10.0089 3.65037 11.8734 3.77538 14.1138C3.86914 15.7903 4.18166 16.793 4.93172 17.9367C5.88492 19.3625 7.15064 20.0205 9.02579 20.0362C11.7916 20.0518 14.6981 18.1874 16.8545 15.0225C17.3858 14.2705 17.8077 13.5655 17.8077 13.4871C17.8077 13.1111 16.4326 12.7978 15.12 12.8448C13.9793 12.9074 13.6511 12.9858 12.6042 13.5028C11.1041 14.2392 9.66646 15.6492 8.8539 17.1533C8.52575 17.7487 8.30698 18.0777 8.35386 17.9054C8.557 17.1533 8.68201 13.9572 8.57263 12.6097C8.41637 10.8393 7.97883 9.3979 7.26003 8.33251C6.79124 7.62747 5.83804 6.71875 5.58802 6.71875C5.54114 6.71875 5.32238 7.14177 5.08799 7.6588Z" fill="#275354"/>
<path d="M73.6245 7.26711C71.89 8.7712 71.0931 11.8107 71.4212 15.8216C71.4993 16.793 71.6087 17.7487 71.6556 17.921C71.7025 18.0934 71.4681 17.7487 71.1399 17.1533C70.3274 15.6492 68.8898 14.2392 67.4053 13.5185C66.4052 13.0171 66.0458 12.9231 64.9051 12.8604C63.5769 12.7821 62.1861 13.1111 62.1861 13.4871C62.1861 13.5655 62.608 14.2705 63.1393 15.0225C64.7176 17.357 66.7334 18.9864 68.921 19.7228C69.9992 20.0832 71.8119 20.1302 72.7026 19.8168C74.1245 19.2998 75.2809 18.0307 75.8591 16.3543C76.4372 14.6935 76.3278 11.4817 75.6247 9.4449C75.2184 8.26984 74.5152 6.71875 74.3746 6.71875C74.3277 6.71875 73.9839 6.96943 73.6245 7.26711Z" fill="#275354"/>
<path d="M0.822031 19.6758C0.7439 19.9265 0.697021 21.1329 0.697021 22.3863C0.697021 24.4544 0.7439 24.7677 1.13456 25.9115C2.27527 29.28 4.71296 31.1758 7.27565 30.7057C10.1196 30.173 12.4948 27.8856 13.9012 24.3291C14.1512 23.718 14.4012 22.966 14.4481 22.6526C14.5575 22.1356 14.5262 22.0729 14.1356 21.9789C13.3855 21.7909 11.8854 22.0259 11.0103 22.4803C9.02579 23.483 7.76007 25.2848 6.90062 28.3399L6.74436 28.8883L6.72874 28.4183C6.69748 27.3842 5.88492 24.5954 5.22862 23.2323C4.43168 21.5872 3.40035 20.3652 2.27527 19.7071C1.27519 19.1431 0.978293 19.1274 0.822031 19.6758Z" fill="#275354"/>
<path d="M77.7186 19.7071C76.5935 20.3652 75.5622 21.5872 74.7652 23.2323C74.1089 24.5954 73.2964 27.3842 73.2651 28.4183L73.2495 28.8883L73.0932 28.3399C72.2338 25.2534 70.9524 23.4517 68.9523 22.4646C68.0303 22.0259 66.6084 21.7909 65.8583 21.9789C65.4676 22.0729 65.4364 22.1356 65.5458 22.6526C65.702 23.4987 66.4521 25.3161 67.124 26.4598C67.9522 27.9013 69.5773 29.4837 70.8118 30.0634C73.6089 31.3794 75.7184 30.8624 77.5623 28.434C78.9062 26.6635 79.4531 24.6111 79.3437 21.7126C79.2968 20.6629 79.2031 19.6758 79.1406 19.5191C78.9843 19.1431 78.6405 19.1901 77.7186 19.7071Z" fill="#275354"/>
<path d="M11.5885 31.6458C10.4946 32.1785 9.55708 33.1655 8.97891 34.3563C8.43199 35.4687 8.07259 37.3018 8.16634 38.4768L8.24448 39.4639L7.72881 38.3828C6.54122 35.9074 4.58794 33.5572 3.0097 32.6799C2.30652 32.3038 0.681392 31.7868 0.19698 31.7868C-0.381189 31.7868 0.400121 35.3277 1.41582 37.3018C2.29089 38.9625 3.47848 40.1846 4.91609 40.8896C5.88492 41.3597 6.15056 41.4223 7.26002 41.4223C8.30698 41.4223 8.66638 41.344 9.44769 40.9837C10.6509 40.4196 11.651 39.3542 12.4792 37.7405C13.2761 36.2207 13.6668 34.701 13.823 32.6799L13.9324 31.1601H13.2449C12.7761 31.1601 12.2292 31.3168 11.5885 31.6458Z" fill="#275354"/>
<path d="M66.1552 32.6642C66.3739 35.6097 67.2646 37.8971 68.8741 39.6362C70.0774 40.9366 71.1243 41.4223 72.7338 41.4223C73.812 41.4223 74.1245 41.3597 75.0465 40.921C77.5623 39.7146 79.625 36.3147 79.9531 32.8052C80.0625 31.6301 80.0938 31.6615 78.6718 32.0218C77.3592 32.3665 76.406 32.9462 75.3278 34.0429C74.0777 35.312 73.3901 36.2677 72.5619 37.9598L71.8744 39.3699V38.2418C71.8744 36.1267 71.2181 34.2309 69.9992 32.8365C69.2023 31.9278 67.7178 31.1601 66.749 31.1601H66.0458L66.1552 32.6642Z" fill="#275354"/>
<path d="M14.6043 40.0436C14.3543 40.1689 13.8074 40.6076 13.4011 40.9993C11.7448 42.6131 11.1666 45.4646 11.9323 48.3787L12.151 49.2248L11.5104 48.4571C9.49458 46.0443 7.27566 44.5245 5.13487 44.0702C3.88477 43.8038 2.52529 43.8978 2.38466 44.2425C2.24402 44.6185 3.50974 47.0313 4.47857 48.2377C6.25996 50.4782 8.16635 51.5592 10.3853 51.5906C12.0416 51.6062 13.0886 51.2302 14.0731 50.2432C16.1045 48.2064 16.792 44.1955 15.7763 40.3726C15.5888 39.7146 15.3544 39.6362 14.6043 40.0436Z" fill="#275354"/>
<path d="M64.2175 40.3726C63.2018 44.1955 63.8894 48.2064 65.9208 50.2432C66.9052 51.2302 67.9522 51.6062 69.6086 51.5906C71.8275 51.5592 73.7339 50.4782 75.5153 48.2377C76.4841 47.0313 77.7498 44.6185 77.6092 44.2425C77.4685 43.8978 76.1091 43.8038 74.859 44.0702C72.7026 44.5245 70.4993 46.0443 68.4678 48.4727L67.8272 49.2561L68.0459 48.3944C68.8116 45.5429 68.2803 42.7227 66.6708 41.062C66.0145 40.3726 65.0613 39.7772 64.6238 39.7772C64.4832 39.7772 64.3269 40.0279 64.2175 40.3726Z" fill="#275354"/>
<path d="M18.6515 48.1124C16.5107 49.9925 16.2764 53.7684 18.1202 56.7452C18.3859 57.1682 18.589 57.5286 18.589 57.5599C18.589 57.5912 18.1202 57.2935 17.5421 56.9019C15.4013 55.4448 12.7605 54.5047 10.8541 54.5047C9.83836 54.5047 8.55701 54.8181 8.04134 55.1784C7.76007 55.3978 7.79132 55.4448 8.58826 56.4475C10.0102 58.2649 12.1823 59.769 14.1981 60.3644C15.4325 60.7247 17.2764 60.6934 18.3859 60.286C19.5735 59.8317 20.6204 58.782 21.0892 57.5442C21.5893 56.2438 21.6986 53.596 21.3236 51.9196C21.058 50.7289 19.6516 47.611 19.3703 47.611C19.2922 47.611 18.9641 47.8304 18.6515 48.1124Z" fill="#275354"/>
<path d="M59.7016 49.1621C58.6702 51.2459 58.3733 52.609 58.4671 54.8651C58.5609 57.0742 58.9515 58.1709 59.9985 59.205C60.9673 60.192 62.108 60.6151 63.7331 60.6151C64.3894 60.6151 65.327 60.5054 65.7958 60.3644C67.8116 59.769 69.9836 58.2649 71.4056 56.4475C72.2025 55.4448 72.2338 55.3978 71.9525 55.1784C71.4369 54.8181 70.1555 54.5047 69.1398 54.5047C67.249 54.5047 64.5769 55.4604 62.4674 56.9019C61.8736 57.2935 61.4048 57.5912 61.4048 57.5599C61.4048 57.5442 61.6392 57.1212 61.9205 56.6512C62.7643 55.2568 63.0456 54.1757 63.0456 52.3896C63.0456 50.9952 62.9831 50.7132 62.5924 49.8515C62.1705 48.9427 61.0142 47.611 60.6391 47.611C60.5454 47.611 60.1391 48.3161 59.7016 49.1621Z" fill="#275354"/>
<path d="M24.7301 54.7084C24.1676 55.5231 23.9019 56.5102 23.9019 57.7166C23.9019 60.0824 24.9645 62.1192 27.1053 63.8739L27.7304 64.3753L26.3396 63.9053C22.4487 62.5892 18.839 62.6518 16.9014 64.0619C16.542 64.3283 16.2451 64.626 16.2451 64.7356C16.2607 65.2683 19.511 67.0858 21.4017 67.6028C22.9331 68.0258 25.277 67.9788 26.449 67.5245C27.746 67.0074 28.9805 65.801 29.3711 64.6573C30.3556 61.8215 29.168 58.1396 26.3396 55.1628C25.8396 54.6301 25.3395 54.1914 25.2458 54.1914C25.152 54.1914 24.9176 54.4264 24.7301 54.7084Z" fill="#275354"/>
<path d="M53.6542 55.1628C51.4509 57.4816 50.3102 59.9727 50.3102 62.5422C50.3102 64.3126 50.7009 65.3467 51.7791 66.3651C53.0135 67.5088 54.0292 67.8848 56.0138 67.8848C57.8577 67.8848 59.0609 67.6028 60.8579 66.7254C62.2486 66.0674 63.7487 65.0333 63.7487 64.7356C63.7487 64.626 63.5144 64.3596 63.2175 64.1403C61.2954 62.6675 57.592 62.5735 53.6698 63.9053L52.2791 64.3753L52.9667 63.7799C54.4824 62.4952 55.3262 61.3044 55.7794 59.8474C56.1544 58.641 56.1857 56.8549 55.8575 55.8991C55.5606 55.0844 54.9824 54.1914 54.7481 54.1914C54.6543 54.1914 54.1543 54.6301 53.6542 55.1628Z" fill="#275354"/>
<path d="M32.4495 59.4713C32.3557 59.722 32.262 60.5524 32.262 61.3201C32.262 62.6205 32.3088 62.8242 32.7933 63.8269C33.5277 65.2997 34.934 66.6784 36.5748 67.4931L37.8405 68.1355H35.6528C32.4651 68.1355 30.3556 68.6212 28.6679 69.7336C28.0429 70.1566 26.8865 71.457 26.8709 71.7547C26.8709 71.9584 29.1055 72.6791 30.4181 72.9141C32.887 73.3528 35.2309 73.1021 37.1061 72.209C38.1843 71.692 39.45 70.5013 39.7157 69.7492C39.9501 69.1069 40.0438 69.1069 40.2782 69.7492C40.5438 70.5013 41.8096 71.692 42.8878 72.209C44.7629 73.1021 47.1068 73.3528 49.5758 72.9141C50.8884 72.6791 53.1229 71.9584 53.1229 71.7547C53.1073 71.457 51.951 70.1566 51.3259 69.7336C49.6383 68.6212 47.5288 68.1355 44.341 68.1355H42.1533L43.4191 67.4931C45.9193 66.2397 47.6069 63.9993 47.7788 61.7118C47.8413 60.6621 47.6069 59.299 47.3256 59.111C47.0131 58.923 44.6223 60.4271 43.2159 61.7275C41.6846 63.1219 40.1532 65.4093 40.1532 66.2867C40.1532 66.4434 40.0907 66.5687 39.9969 66.5687C39.9188 66.5687 39.8407 66.4434 39.8407 66.2867C39.8407 65.8324 39.1062 64.4066 38.3718 63.4509C37.1842 61.8998 35.2153 60.2704 33.4808 59.3773C32.6526 58.97 32.6839 58.9543 32.4495 59.4713Z" fill="#275354"/>
<path d="M24.0625 43.2895V40.807L32.209 32.5757C34.3858 30.4198 35.4742 28.5689 35.4742 27.0228C35.4742 25.738 35.0784 24.7363 34.2869 24.0177C33.4953 23.2991 32.5278 22.9398 31.3845 22.9398C29.2077 22.9398 27.6245 23.9632 26.6351 26.0102L24.0625 24.5076C24.7881 23.0269 25.7885 21.9054 27.0638 21.1432C28.3611 20.3811 29.7903 20 31.3515 20C33.2864 20 34.9685 20.6315 36.3977 21.8945C37.8269 23.1575 38.5415 24.8561 38.5415 26.9901C38.5415 29.2984 37.1673 31.8135 34.4188 34.5355L28.515 40.3497H38.9703V43.2895H24.0625Z" fill="#275354"/>
<path d="M58.125 36.1034V38.9452H55.3215V43.2895H52.2542V38.9452H40.4797V36.1034L48.7582 20.4246H52.0563L43.7779 36.1034H52.2542V29.6359H55.3215V36.1034H58.125Z" fill="#275354"/>
</g>
<defs>
<clipPath id="clip0_675_3377">
<rect width="80" height="80" fill="white"/>
</clipPath>
</defs>
</svg>
