<svg width="60" height="60" viewBox="0 0 60 60" fill="none" xmlns="http://www.w3.org/2000/svg">
<g clip-path="url(#clip0_1206_11124)">
<path d="M3.81599 5.7441C3.03077 7.5067 2.73778 8.90503 2.83154 10.5854C2.90186 11.8427 3.13625 12.5947 3.69879 13.4525C4.41369 14.5218 5.36298 15.0154 6.76934 15.0271C8.84372 15.0389 11.0236 13.6405 12.6409 11.2669C13.0394 10.7029 13.3558 10.1741 13.3558 10.1153C13.3558 9.83333 12.3245 9.59832 11.34 9.63357C10.4845 9.68057 10.2384 9.73932 9.45314 10.1271C8.32806 10.6794 7.24985 11.7369 6.64042 12.865C6.39431 13.3115 6.23024 13.5583 6.2654 13.429C6.41775 12.865 6.51151 10.4679 6.42947 9.45731C6.31227 8.12948 5.98412 7.04842 5.44502 6.24938C5.09343 5.7206 4.37853 5.03906 4.19102 5.03906C4.15586 5.03906 3.99178 5.35633 3.81599 5.7441Z" fill="#275354"/>
<path d="M55.2184 5.45034C53.9175 6.5784 53.3198 8.85802 53.5659 11.8662C53.6245 12.5947 53.7065 13.3115 53.7417 13.4408C53.7769 13.57 53.6011 13.3115 53.355 12.865C52.7455 11.7369 51.6673 10.6794 50.554 10.1388C49.8039 9.76282 49.5343 9.69232 48.6788 9.64532C47.6826 9.58656 46.6396 9.83333 46.6396 10.1153C46.6396 10.1741 46.956 10.7029 47.3545 11.2669C48.5382 13.0178 50.05 14.2398 51.6908 14.7921C52.4994 15.0624 53.8589 15.0976 54.5269 14.8626C55.5934 14.4748 56.4607 13.523 56.8943 12.2657C57.3279 11.0201 57.2459 8.61126 56.7185 7.08368C56.4138 6.20238 55.8864 5.03906 55.7809 5.03906C55.7458 5.03906 55.4879 5.22707 55.2184 5.45034Z" fill="#275354"/>
<path d="M0.616523 14.7568C0.557925 14.9449 0.522766 15.8497 0.522766 16.7897C0.522766 18.3408 0.557925 18.5758 0.850916 19.4336C1.70645 21.96 3.53472 23.3818 5.45674 23.0293C7.58972 22.6298 9.3711 20.9142 10.4259 18.2468C10.6134 17.7885 10.8009 17.2245 10.8361 16.9895C10.9181 16.6017 10.8947 16.5547 10.6017 16.4842C10.0391 16.3432 8.91404 16.5194 8.25774 16.8602C6.76934 17.6123 5.82005 18.9636 5.17547 21.255L5.05827 21.6662L5.04655 21.3137C5.02311 20.5382 4.41369 18.4466 3.92147 17.4242C3.32376 16.1904 2.55027 15.2739 1.70645 14.7804C0.956393 14.3573 0.73372 14.3456 0.616523 14.7568Z" fill="#275354"/>
<path d="M58.2889 14.7804C57.4451 15.2739 56.6716 16.1904 56.0739 17.4242C55.5817 18.4466 54.9723 20.5382 54.9488 21.3137L54.9371 21.6662L54.8199 21.255C54.1753 18.9401 53.2143 17.5888 51.7142 16.8485C51.0228 16.5194 49.9563 16.3432 49.3937 16.4842C49.1007 16.5547 49.0773 16.6017 49.1593 16.9895C49.2765 17.624 49.8391 18.9871 50.343 19.8449C50.9642 20.9259 52.183 22.1128 53.1089 22.5475C55.2067 23.5346 56.7888 23.1468 58.1717 21.3255C59.1796 19.9976 59.5898 18.4583 59.5078 16.2844C59.4726 15.4971 59.4023 14.7568 59.3554 14.6393C59.2382 14.3573 58.9804 14.3926 58.2889 14.7804Z" fill="#275354"/>
<path d="M8.69136 23.7343C7.87099 24.1339 7.16781 24.8742 6.73418 25.7672C6.32399 26.6015 6.05444 27.9763 6.12476 28.8576L6.18336 29.5979L5.79661 28.7871C4.90591 26.9305 3.44096 25.1679 2.25727 24.5099C1.72989 24.2279 0.511044 23.8401 0.147735 23.8401C-0.285892 23.8401 0.300091 26.4958 1.06187 27.9763C1.71817 29.2219 2.60886 30.1385 3.68707 30.6672C4.41369 31.0198 4.61292 31.0668 5.44502 31.0668C6.23023 31.0668 6.49979 31.008 7.08577 30.7377C7.98818 30.3147 8.73824 29.5157 9.35938 28.3053C9.95708 27.1655 10.2501 26.0257 10.3673 24.5099L10.4493 23.3701H9.93365C9.58206 23.3701 9.17187 23.4876 8.69136 23.7343Z" fill="#275354"/>
<path d="M49.6164 24.4981C49.7805 26.7073 50.4485 28.4229 51.6556 29.7272C52.558 30.7025 53.3432 31.0668 54.5504 31.0668C55.359 31.0668 55.5934 31.0198 56.2849 30.6907C58.1717 29.7859 59.7187 27.236 59.9648 24.6039C60.0469 23.7226 60.0703 23.7461 59.0038 24.0164C58.0194 24.2749 57.3045 24.7097 56.4958 25.5322C55.5583 26.484 55.0426 27.2008 54.4214 28.4699L53.9058 29.5274V28.6814C53.9058 27.095 53.4136 25.6732 52.4994 24.6274C51.9017 23.9459 50.7884 23.3701 50.0617 23.3701H49.5343L49.6164 24.4981Z" fill="#275354"/>
<path d="M10.9533 30.0327C10.7657 30.1267 10.3556 30.4557 10.0508 30.7495C8.80856 31.9598 8.37494 34.0984 8.9492 36.284L9.11328 36.9186L8.63277 36.3428C7.12093 34.5332 5.45674 33.3934 3.85115 33.0526C2.91358 32.8529 1.89397 32.9234 1.78849 33.1819C1.68302 33.4639 2.63231 35.2735 3.35893 36.1783C4.69497 37.8586 6.12476 38.6694 7.78895 38.6929C9.03124 38.7047 9.81645 38.4227 10.5548 37.6824C12.0783 36.1548 12.594 33.1466 11.8322 30.2795C11.6916 29.7859 11.5158 29.7272 10.9533 30.0327Z" fill="#275354"/>
<path d="M48.1631 30.2795C47.4014 33.1466 47.917 36.1548 49.4406 37.6824C50.1789 38.4227 50.9641 38.7047 52.2064 38.6929C53.8706 38.6694 55.3004 37.8586 56.6364 36.1783C57.3631 35.2735 58.3124 33.4639 58.2069 33.1819C58.1014 32.9234 57.0818 32.8529 56.1442 33.0526C54.5269 33.3934 52.8744 34.5332 51.3509 36.3545L50.8704 36.9421L51.0345 36.2958C51.6087 34.1572 51.2102 32.0421 50.0031 30.7965C49.5109 30.2795 48.796 29.8329 48.4678 29.8329C48.3624 29.8329 48.2452 30.0209 48.1631 30.2795Z" fill="#275354"/>
<path d="M13.9886 36.0843C12.3831 37.4944 12.2073 40.3263 13.5902 42.5589C13.7894 42.8762 13.9418 43.1464 13.9418 43.1699C13.9418 43.1934 13.5902 42.9702 13.1566 42.6764C11.551 41.5836 9.57034 40.8785 8.14054 40.8785C7.37877 40.8785 6.41775 41.1136 6.03101 41.3838C5.82005 41.5483 5.84349 41.5836 6.44119 42.3356C7.50768 43.6987 9.13671 44.8268 10.6485 45.2733C11.5744 45.5436 12.9573 45.5201 13.7894 45.2145C14.6801 44.8738 15.4653 44.0865 15.8169 43.1582C16.1919 42.1829 16.274 40.197 15.9927 38.9397C15.7935 38.0466 14.7387 35.7083 14.5278 35.7083C14.4692 35.7083 14.223 35.8728 13.9886 36.0843Z" fill="#275354"/>
<path d="M44.7762 36.8716C44.0027 38.4344 43.78 39.4567 43.8503 41.1488C43.9206 42.8057 44.2136 43.6282 44.9989 44.4037C45.7255 45.144 46.581 45.4613 47.7998 45.4613C48.2921 45.4613 48.9953 45.379 49.3468 45.2733C50.8587 44.8268 52.4877 43.6987 53.5542 42.3356C54.1519 41.5836 54.1753 41.5483 53.9644 41.3838C53.5776 41.1136 52.6166 40.8785 51.8549 40.8785C50.4368 40.8785 48.4327 41.5953 46.8506 42.6764C46.4052 42.9702 46.0536 43.1934 46.0536 43.1699C46.0536 43.1582 46.2294 42.8409 46.4404 42.4884C47.0732 41.4426 47.2842 40.6318 47.2842 39.2922C47.2842 38.2464 47.2373 38.0349 46.9443 37.3886C46.6279 36.7071 45.7606 35.7083 45.4794 35.7083C45.409 35.7083 45.1043 36.237 44.7762 36.8716Z" fill="#275354"/>
<path d="M18.5476 41.0313C18.1257 41.6423 17.9265 42.3826 17.9265 43.2874C17.9265 45.0618 18.7234 46.5894 20.329 47.9054L20.7978 48.2815L19.7547 47.9289C16.8365 46.9419 14.1293 46.9889 12.676 48.0464C12.4065 48.2462 12.1838 48.4695 12.1838 48.5517C12.1955 48.9512 14.6332 50.3143 16.0513 50.7021C17.1998 51.0194 18.9578 50.9841 19.8368 50.6433C20.8095 50.2556 21.7353 49.3508 22.0283 48.493C22.7667 46.3661 21.876 43.6047 19.7547 41.3721C19.3797 40.9726 19.0047 40.6435 18.9343 40.6435C18.864 40.6435 18.6882 40.8198 18.5476 41.0313Z" fill="#275354"/>
<path d="M40.2407 41.3721C38.5882 43.1112 37.7327 44.9795 37.7327 46.9066C37.7327 48.2345 38.0256 49.01 38.8343 49.7738C39.7602 50.6316 40.5219 50.9136 42.0103 50.9136C43.3933 50.9136 44.2957 50.7021 45.6434 50.0441C46.6865 49.5505 47.8116 48.775 47.8116 48.5517C47.8116 48.4695 47.6358 48.2697 47.4131 48.1052C45.9716 47.0006 43.194 46.9301 40.2524 47.9289L39.2093 48.2815L39.725 47.8349C40.8618 46.8714 41.4947 45.9783 41.8345 44.8855C42.1158 43.9807 42.1392 42.6411 41.8931 41.9244C41.6705 41.3133 41.2368 40.6435 41.061 40.6435C40.9907 40.6435 40.6157 40.9726 40.2407 41.3721Z" fill="#275354"/>
<path d="M24.3371 44.6035C24.2668 44.7915 24.1965 45.4143 24.1965 45.9901C24.1965 46.9654 24.2316 47.1181 24.5949 47.8702C25.1458 48.9747 26.2005 50.0088 27.4311 50.6198L28.3804 51.1016H26.7396C24.3488 51.1016 22.7667 51.4659 21.5009 52.3002C21.0322 52.6175 20.1649 53.5928 20.1532 53.816C20.1532 53.9688 21.8291 54.5093 22.8136 54.6856C24.6653 55.0146 26.4232 54.8266 27.8296 54.1568C28.6382 53.769 29.5875 52.876 29.7867 52.3119C29.9625 51.8302 30.0329 51.8302 30.2087 52.3119C30.4079 52.876 31.3572 53.769 32.1658 54.1568C33.5722 54.8266 35.3301 55.0146 37.1818 54.6856C38.1663 54.5093 39.8422 53.9688 39.8422 53.816C39.8305 53.5928 38.9632 52.6175 38.4944 52.3002C37.2287 51.4659 35.6466 51.1016 33.2558 51.1016H31.615L32.5643 50.6198C34.4394 49.6798 35.7052 47.9994 35.8341 46.2838C35.881 45.4966 35.7052 44.4742 35.4942 44.3332C35.2598 44.1922 33.4667 45.3203 32.4119 46.2956C31.2634 47.3414 30.1149 49.057 30.1149 49.715C30.1149 49.8325 30.068 49.9265 29.9977 49.9265C29.9391 49.9265 29.8805 49.8325 29.8805 49.715C29.8805 49.3743 29.3297 48.305 28.7789 47.5882C27.8882 46.4249 26.4115 45.2028 25.1106 44.533C24.4895 44.2275 24.5129 44.2157 24.3371 44.6035Z" fill="#275354"/>
<path d="M18.0469 32.4671V30.6053L24.1568 24.4317C25.7894 22.8149 26.6057 21.4267 26.6057 20.2671C26.6057 19.3035 26.3088 18.5522 25.7152 18.0133C25.1215 17.4743 24.3959 17.2048 23.5384 17.2048C21.9057 17.2048 20.7184 17.9724 19.9763 19.5076L18.0469 18.3807C18.5911 17.2702 19.3414 16.4291 20.2979 15.8574C21.2708 15.2858 22.3428 15 23.5136 15C24.9648 15 26.2264 15.4736 27.2983 16.4209C28.3702 17.3681 28.9061 18.642 28.9061 20.2426C28.9061 21.9738 27.8755 23.8601 25.8141 25.9016L21.3863 30.2623H29.2277V32.4671H18.0469Z" fill="#275354"/>
<path d="M43.5938 27.0775V29.2089H41.4912V32.4671H39.1907V29.2089H30.3598V27.0775L36.5686 15.3185H39.0423L32.8334 27.0775H39.1907V22.2269H41.4912V27.0775H43.5938Z" fill="#275354"/>
</g>
<defs>
<clipPath id="clip0_1206_11124">
<rect width="60" height="60" fill="white"/>
</clipPath>
</defs>
</svg>
