<svg xmlns="http://www.w3.org/2000/svg" width="240" height="240" viewBox="0 0 240 240" fill="none">
  <g clip-path="url(#clip0_994_5675)">
    <path d="M15.264 22.9764C12.1231 30.0268 10.9511 35.6201 11.3262 42.3415C11.6074 47.3708 12.545 50.3789 14.7952 53.8101C17.6548 58.0874 21.4519 60.0615 27.0774 60.1085C35.3749 60.1555 44.0943 54.5622 50.5635 45.0676C52.1574 42.8115 53.4231 40.6964 53.4231 40.4614C53.4231 39.3333 49.2978 38.3933 45.36 38.5343C41.9379 38.7223 40.9534 38.9573 37.8126 40.5084C33.3122 42.7175 28.9994 46.9477 26.5617 51.46C25.5772 53.2461 24.9209 54.2331 25.0616 53.7161C25.671 51.46 26.046 41.8715 25.7179 37.8292C25.2491 32.5179 23.9365 28.1937 21.7801 24.9975C20.3737 22.8824 17.5141 20.1563 16.7641 20.1563C16.6234 20.1563 15.9671 21.4253 15.264 22.9764Z" fill="url(#paint0_linear_994_5675)"/>
    <path d="M220.874 21.8013C215.67 26.3136 213.279 35.4321 214.264 47.4648C214.498 50.3789 214.826 53.2461 214.967 53.7631C215.107 54.2801 214.404 53.2461 213.42 51.46C210.982 46.9477 206.669 42.7175 202.216 40.5554C199.216 39.0513 198.137 38.7693 194.715 38.5813C190.731 38.3463 186.558 39.3333 186.558 40.4614C186.558 40.6964 187.824 42.8115 189.418 45.0676C194.153 52.071 200.2 56.9593 206.763 59.1684C209.998 60.2495 215.436 60.3905 218.108 59.4504C222.374 57.8993 225.843 54.0921 227.577 49.0629C229.312 44.0806 228.984 34.445 226.874 28.3347C225.655 24.8095 223.546 20.1562 223.124 20.1562C222.983 20.1562 221.952 20.9083 220.874 21.8013Z" fill="url(#paint1_linear_994_5675)"/>
    <path d="M2.46609 59.0274C2.2317 59.7794 2.09106 63.3986 2.09106 67.1588C2.09106 73.3632 2.2317 74.3032 3.40367 77.7344C6.8258 87.84 14.1389 93.5273 21.827 92.1172C30.3589 90.5191 37.4844 83.6568 41.7035 72.9872C42.4535 71.1541 43.2036 68.8979 43.3442 67.9579C43.6724 66.4068 43.5786 66.2188 42.4067 65.9368C40.1565 65.3727 35.6562 66.0778 33.0309 67.4409C27.0774 70.449 23.2802 75.8543 20.7019 85.0198L20.2331 86.6649L20.1862 85.2549C20.0925 82.1527 17.6548 73.7862 15.6859 69.697C13.2951 64.7617 10.2011 61.0955 6.8258 59.1214C3.82557 57.4293 2.93488 57.3823 2.46609 59.0274Z" fill="url(#paint2_linear_994_5675)"/>
    <path d="M233.156 59.1214C229.781 61.0955 226.687 64.7617 224.296 69.697C222.327 73.7862 219.889 82.1527 219.795 85.2549L219.748 86.6649L219.28 85.0198C216.701 75.7603 212.857 70.355 206.857 67.3939C204.091 66.0778 199.825 65.3727 197.575 65.9368C196.403 66.2188 196.309 66.4068 196.637 67.9579C197.106 70.496 199.356 75.9483 201.372 79.3795C203.857 83.7038 208.732 88.451 212.435 90.1901C220.827 94.1383 227.155 92.5872 232.687 85.3018C236.719 79.9906 238.359 73.8332 238.031 65.1377C237.89 61.9886 237.609 59.0274 237.422 58.5574C236.953 57.4293 235.922 57.5703 233.156 59.1214Z" fill="url(#paint3_linear_994_5675)"/>
    <path d="M34.7654 94.9374C31.4839 96.5355 28.6712 99.4966 26.9367 103.069C25.296 106.406 24.2178 111.905 24.499 115.431L24.7334 118.392L23.1864 115.149C19.6237 107.722 13.7638 100.672 9.02909 98.0396C6.91955 96.9115 2.04418 95.3604 0.590941 95.3604C-1.14357 95.3604 1.20036 105.983 4.24747 111.905C6.87267 116.888 10.4354 120.554 14.7483 122.669C17.6548 124.079 18.4517 124.267 21.7801 124.267C24.9209 124.267 25.9991 124.032 28.3431 122.951C31.9527 121.259 34.953 118.063 37.4375 113.221C39.8283 108.662 41.0003 104.103 41.4691 98.0396L41.7972 93.4803H39.7346C38.3282 93.4803 36.6875 93.9503 34.7654 94.9374Z" fill="url(#paint4_linear_994_5675)"/>
    <path d="M198.466 97.9926C199.122 106.829 201.794 113.691 206.622 118.909C210.232 122.81 213.373 124.267 218.201 124.267C221.436 124.267 222.374 124.079 225.139 122.763C232.687 119.144 238.875 108.944 239.859 98.4156C240.188 94.8904 240.281 94.9844 236.015 96.0655C232.078 97.0995 229.218 98.8386 225.983 102.129C222.233 105.936 220.17 108.803 217.686 113.879L215.623 118.11V114.725C215.623 108.38 213.654 102.693 209.998 98.5096C207.607 95.7834 203.153 93.4803 200.247 93.4803H198.137L198.466 97.9926Z" fill="url(#paint5_linear_994_5675)"/>
    <path d="M43.813 120.131C43.063 120.507 41.4222 121.823 40.2034 122.998C35.2343 127.839 33.4997 136.394 35.7968 145.136L36.4531 147.674L34.5311 145.371C28.4837 138.133 21.827 133.574 15.4046 132.21C11.6543 131.411 7.57588 131.693 7.15397 132.727C6.73206 133.856 10.5292 141.094 13.4357 144.713C18.7799 151.435 24.4991 154.678 31.1558 154.772C36.125 154.819 39.2658 153.691 42.2192 150.729C48.3134 144.619 50.376 132.586 47.3289 121.118C46.7664 119.144 46.0632 118.909 43.813 120.131Z" fill="url(#paint6_linear_994_5675)"/>
    <path d="M192.653 121.118C189.605 132.586 191.668 144.619 197.762 150.729C200.716 153.691 203.857 154.819 208.826 154.772C215.482 154.678 221.202 151.435 226.546 144.713C229.452 141.094 233.249 133.856 232.828 132.727C232.406 131.693 228.327 131.411 224.577 132.21C218.108 133.574 211.498 138.133 205.404 145.418L203.482 147.768L204.138 145.183C206.435 136.629 204.841 128.168 200.012 123.186C198.044 121.118 195.184 119.332 193.871 119.332C193.449 119.332 192.981 120.084 192.653 121.118Z" fill="url(#paint7_linear_994_5675)"/>
    <path d="M55.9546 144.337C49.5322 149.977 48.8291 161.305 54.3607 170.236C55.1577 171.505 55.7671 172.586 55.7671 172.68C55.7671 172.774 54.3607 171.881 52.6262 170.706C46.2038 166.334 38.2814 163.514 32.5622 163.514C29.5151 163.514 25.671 164.454 24.124 165.535C23.2802 166.193 23.374 166.334 25.7648 169.343C30.0307 174.795 36.5469 179.307 42.5942 181.093C46.2976 182.174 51.8293 182.08 55.1577 180.858C58.7204 179.495 61.8613 176.346 63.2677 172.633C64.7678 168.731 65.0959 160.788 63.9708 155.759C63.1739 152.187 58.9548 142.833 58.111 142.833C57.8766 142.833 56.8922 143.491 55.9546 144.337Z" fill="url(#paint8_linear_994_5675)"/>
    <path d="M179.105 147.486C176.011 153.738 175.12 157.827 175.401 164.595C175.683 171.223 176.855 174.513 179.995 177.615C182.902 180.576 186.324 181.845 191.199 181.845C193.168 181.845 195.981 181.516 197.387 181.093C203.435 179.307 209.951 174.795 214.217 169.342C216.608 166.334 216.701 166.193 215.858 165.535C214.311 164.454 210.467 163.514 207.419 163.514C201.747 163.514 193.731 166.381 187.402 170.706C185.621 171.881 184.214 172.774 184.214 172.68C184.214 172.633 184.918 171.364 185.761 169.954C188.293 165.77 189.137 162.527 189.137 157.169C189.137 152.986 188.949 152.14 187.777 149.554C186.512 146.828 183.043 142.833 181.917 142.833C181.636 142.833 180.417 144.948 179.105 147.486Z" fill="url(#paint9_linear_994_5675)"/>
    <path d="M74.1904 164.125C72.5028 166.569 71.7058 169.531 71.7058 173.15C71.7058 180.247 74.8936 186.357 81.3159 191.622L83.1911 193.126L79.0189 191.716C67.3461 187.768 56.5171 187.956 50.7042 192.186C49.626 192.985 48.7353 193.878 48.7353 194.207C48.7822 195.805 58.5329 201.257 64.2052 202.808C68.7993 204.077 75.8311 203.936 79.347 202.573C83.238 201.022 86.9414 197.403 88.1133 193.972C91.0667 185.464 87.5039 174.419 79.0189 165.488C77.5188 163.89 76.0186 162.574 75.7374 162.574C75.4561 162.574 74.7529 163.279 74.1904 164.125Z" fill="url(#paint10_linear_994_5675)"/>
    <path d="M160.963 165.488C154.353 172.445 150.931 179.918 150.931 187.627C150.931 192.938 152.103 196.04 155.337 199.095C159.041 202.526 162.088 203.654 168.041 203.654C173.573 203.654 177.183 202.808 182.574 200.176C186.746 198.202 191.246 195.1 191.246 194.207C191.246 193.878 190.543 193.079 189.652 192.421C183.886 188.003 172.776 187.721 161.01 191.716L156.837 193.126L158.9 191.34C163.447 187.486 165.979 183.913 167.338 179.542C168.463 175.923 168.557 170.565 167.573 167.697C166.682 165.253 164.947 162.574 164.244 162.574C163.963 162.574 162.463 163.89 160.963 165.488Z" fill="url(#paint11_linear_994_5675)"/>
    <path d="M97.3484 178.414C97.0671 179.166 96.7859 181.657 96.7859 183.96C96.7859 187.862 96.9265 188.473 98.3798 191.481C100.583 195.899 104.802 200.035 109.724 202.479L113.522 204.406H106.959C97.3953 204.406 91.0667 205.864 86.0038 209.201C84.1286 210.47 80.6596 214.371 80.6128 215.264C80.6128 215.875 87.3164 218.037 91.2542 218.742C98.661 220.058 105.693 219.306 111.318 216.627C114.553 215.076 118.35 211.504 119.147 209.248C119.85 207.321 120.131 207.321 120.835 209.248C121.632 211.504 125.429 215.076 128.663 216.627C134.289 219.306 141.321 220.058 148.727 218.742C152.665 218.037 159.369 215.875 159.369 215.264C159.322 214.371 155.853 210.47 153.978 209.201C148.915 205.864 142.586 204.406 133.023 204.406H126.46L130.257 202.479C137.758 198.719 142.821 191.998 143.336 185.135C143.524 181.986 142.821 177.897 141.977 177.333C141.039 176.769 133.867 181.281 129.648 185.182C125.054 189.366 120.46 196.228 120.46 198.86C120.46 199.33 120.272 199.706 119.991 199.706C119.756 199.706 119.522 199.33 119.522 198.86C119.522 197.497 117.319 193.22 115.115 190.353C111.553 185.699 105.646 180.811 100.442 178.132C97.9578 176.91 98.0516 176.863 97.3484 178.414Z" fill="url(#paint12_linear_994_5675)"/>
    <path d="M72.1875 129.868V122.421L96.627 97.727C103.157 91.2595 106.423 85.7066 106.423 81.0683C106.423 77.214 105.235 74.2089 102.861 72.053C100.486 69.8972 97.5835 68.8193 94.1534 68.8193C87.623 68.8193 82.8736 71.8897 79.9052 78.0306L72.1875 73.5229C74.3643 69.0806 77.3656 65.7162 81.1915 63.4297C85.0834 61.1432 89.371 60 94.0545 60C99.8593 60 104.905 61.8945 109.193 65.6835C113.481 69.4726 115.625 74.5682 115.625 80.9703C115.625 87.8951 111.502 95.4405 103.256 103.607L85.5451 121.049H116.911V129.868H72.1875Z" fill="white"/>
    <path d="M174.375 108.31V116.835H165.965V129.868H156.763V116.835H121.439V108.31L146.274 61.2739H156.169L131.334 108.31H156.763V88.9077H165.965V108.31H174.375Z" fill="white"/>
  </g>
  <defs>
    <linearGradient id="paint0_linear_994_5675" x1="239.998" y1="219.375" x2="0" y2="219.375" gradientUnits="userSpaceOnUse">
      <stop stop-color="#0D574A"/>
      <stop offset="1" stop-color="#097B5D"/>
    </linearGradient>
    <linearGradient id="paint1_linear_994_5675" x1="239.998" y1="219.375" x2="0" y2="219.375" gradientUnits="userSpaceOnUse">
      <stop stop-color="#0D574A"/>
      <stop offset="1" stop-color="#097B5D"/>
    </linearGradient>
    <linearGradient id="paint2_linear_994_5675" x1="239.998" y1="219.375" x2="0" y2="219.375" gradientUnits="userSpaceOnUse">
      <stop stop-color="#0D574A"/>
      <stop offset="1" stop-color="#097B5D"/>
    </linearGradient>
    <linearGradient id="paint3_linear_994_5675" x1="239.998" y1="219.375" x2="0" y2="219.375" gradientUnits="userSpaceOnUse">
      <stop stop-color="#0D574A"/>
      <stop offset="1" stop-color="#097B5D"/>
    </linearGradient>
    <linearGradient id="paint4_linear_994_5675" x1="239.998" y1="219.375" x2="0" y2="219.375" gradientUnits="userSpaceOnUse">
      <stop stop-color="#0D574A"/>
      <stop offset="1" stop-color="#097B5D"/>
    </linearGradient>
    <linearGradient id="paint5_linear_994_5675" x1="239.998" y1="219.375" x2="0" y2="219.375" gradientUnits="userSpaceOnUse">
      <stop stop-color="#0D574A"/>
      <stop offset="1" stop-color="#097B5D"/>
    </linearGradient>
    <linearGradient id="paint6_linear_994_5675" x1="239.998" y1="219.375" x2="0" y2="219.375" gradientUnits="userSpaceOnUse">
      <stop stop-color="#0D574A"/>
      <stop offset="1" stop-color="#097B5D"/>
    </linearGradient>
    <linearGradient id="paint7_linear_994_5675" x1="239.998" y1="219.375" x2="0" y2="219.375" gradientUnits="userSpaceOnUse">
      <stop stop-color="#0D574A"/>
      <stop offset="1" stop-color="#097B5D"/>
    </linearGradient>
    <linearGradient id="paint8_linear_994_5675" x1="239.998" y1="219.375" x2="0" y2="219.375" gradientUnits="userSpaceOnUse">
      <stop stop-color="#0D574A"/>
      <stop offset="1" stop-color="#097B5D"/>
    </linearGradient>
    <linearGradient id="paint9_linear_994_5675" x1="239.998" y1="219.375" x2="0" y2="219.375" gradientUnits="userSpaceOnUse">
      <stop stop-color="#0D574A"/>
      <stop offset="1" stop-color="#097B5D"/>
    </linearGradient>
    <linearGradient id="paint10_linear_994_5675" x1="239.998" y1="219.375" x2="0" y2="219.375" gradientUnits="userSpaceOnUse">
      <stop stop-color="#0D574A"/>
      <stop offset="1" stop-color="#097B5D"/>
    </linearGradient>
    <linearGradient id="paint11_linear_994_5675" x1="239.998" y1="219.375" x2="0" y2="219.375" gradientUnits="userSpaceOnUse">
      <stop stop-color="#0D574A"/>
      <stop offset="1" stop-color="#097B5D"/>
    </linearGradient>
    <linearGradient id="paint12_linear_994_5675" x1="239.998" y1="219.375" x2="0" y2="219.375" gradientUnits="userSpaceOnUse">
      <stop stop-color="#0D574A"/>
      <stop offset="1" stop-color="#097B5D"/>
    </linearGradient>
    <clipPath id="clip0_994_5675">
      <rect width="240" height="240" fill="white"/>
    </clipPath>
  </defs>
</svg>