<svg width="210" height="52" viewBox="0 0 210 52" fill="none" xmlns="http://www.w3.org/2000/svg">
<g clip-path="url(#clip0_666_2311)">
<path d="M74.4302 49.3683H75.0029V54.4959H74.3279V50.5477L71.2801 54.4959H70.7073V49.3683H71.3823V53.3165L74.4302 49.3683Z" fill="#0D2833"/>
<path d="M80.0509 49.3683H80.7259V54.4959H80.0509V52.2603H77.1054V54.4959H76.4304V49.3683H77.1054V51.6039H80.0509V49.3683Z" fill="#0D2833"/>
<path d="M88.1263 54.4959H87.3081L85.2217 52.0244V54.4959H84.5467V52.0244L82.4602 54.4959H81.642L83.933 51.8295L81.7443 49.3683H82.5625L84.5467 51.6449V49.3683H85.2217V51.6449L87.2058 49.3683H88.024L85.8353 51.8295L88.1263 54.4959Z" fill="#0D2833"/>
<path d="M90.9981 49.2453C91.7549 49.2453 92.3652 49.5153 92.8288 50.0554C93.2993 50.5887 93.5345 51.2211 93.5345 51.9526C93.5345 52.0278 93.5277 52.1338 93.5141 52.2705H89.0242C89.0924 52.7901 89.3105 53.2037 89.6787 53.5114C90.0537 53.8122 90.514 53.9626 91.0595 53.9626C91.4481 53.9626 91.7822 53.884 92.0618 53.7267C92.3481 53.5626 92.5629 53.3507 92.7061 53.0909L93.2993 53.4396C93.0743 53.8019 92.7675 54.0891 92.3788 54.301C91.9902 54.513 91.547 54.6189 91.0492 54.6189C90.2447 54.6189 89.5901 54.366 89.0855 53.86C88.581 53.3541 88.3287 52.7115 88.3287 51.9321C88.3287 51.1664 88.5776 50.5271 89.0753 50.0144C89.573 49.5016 90.214 49.2453 90.9981 49.2453ZM90.9981 49.9016C90.4663 49.9016 90.0197 50.0623 89.6583 50.3836C89.3037 50.6981 89.0924 51.1083 89.0242 51.6142H92.8391C92.7709 51.0741 92.5629 50.6536 92.2152 50.3528C91.8674 50.052 91.4617 49.9016 90.9981 49.9016Z" fill="#0D2833"/>
<path d="M98.2288 49.3683H98.9038V54.4959H98.2288V52.2603H95.2833V54.4959H94.6083V49.3683H95.2833V51.6039H98.2288V49.3683Z" fill="#0D2833"/>
<path d="M102.694 49.2453C103.451 49.2453 104.061 49.5153 104.525 50.0554C104.995 50.5887 105.23 51.2211 105.23 51.9526C105.23 52.0278 105.223 52.1338 105.21 52.2705H100.72C100.788 52.7901 101.006 53.2037 101.375 53.5114C101.75 53.8122 102.21 53.9626 102.755 53.9626C103.144 53.9626 103.478 53.884 103.758 53.7267C104.044 53.5626 104.259 53.3507 104.402 53.0909L104.995 53.4396C104.77 53.8019 104.463 54.0891 104.075 54.301C103.686 54.513 103.243 54.6189 102.745 54.6189C101.94 54.6189 101.286 54.366 100.781 53.86C100.277 53.3541 100.024 52.7115 100.024 51.9321C100.024 51.1664 100.273 50.5271 100.771 50.0144C101.269 49.5016 101.91 49.2453 102.694 49.2453ZM102.694 49.9016C102.162 49.9016 101.715 50.0623 101.354 50.3836C101 50.6981 100.788 51.1083 100.72 51.6142H104.535C104.467 51.0741 104.259 50.6536 103.911 50.3528C103.563 50.052 103.158 49.9016 102.694 49.9016Z" fill="#0D2833"/>
<path d="M109.045 49.2453C109.775 49.2453 110.395 49.5051 110.906 50.0246C111.425 50.5442 111.684 51.1801 111.684 51.9321C111.684 52.6841 111.425 53.3199 110.906 53.8395C110.395 54.3591 109.775 54.6189 109.045 54.6189C108.138 54.6189 107.45 54.2429 106.979 53.4909V56.5469H106.304V49.3683H106.979V50.3733C107.45 49.6213 108.138 49.2453 109.045 49.2453ZM107.562 53.3781C107.951 53.7677 108.428 53.9626 108.994 53.9626C109.56 53.9626 110.037 53.7677 110.426 53.3781C110.814 52.9815 111.009 52.4995 111.009 51.9321C111.009 51.3646 110.814 50.8861 110.426 50.4964C110.037 50.0999 109.56 49.9016 108.994 49.9016C108.428 49.9016 107.951 50.0999 107.562 50.4964C107.173 50.8861 106.979 51.3646 106.979 51.9321C106.979 52.4995 107.173 52.9815 107.562 53.3781Z" fill="#0D2833"/>
<path d="M116.427 49.3683H117.102V54.4959H116.427V52.2603H113.481V54.4959H112.806V49.3683H113.481V51.6039H116.427V49.3683Z" fill="#0D2833"/>
<path d="M120.605 51.3168C121.083 51.3168 121.485 51.4672 121.812 51.768C122.146 52.062 122.313 52.4414 122.313 52.9063C122.313 53.3712 122.146 53.7541 121.812 54.0549C121.485 54.3489 121.083 54.4959 120.605 54.4959H118.529V49.3683H119.204V51.3168H120.605ZM123.029 49.3683H123.704V54.4959H123.029V49.3683ZM120.605 53.8395C120.892 53.8395 121.134 53.7541 121.332 53.5832C121.536 53.4122 121.638 53.1866 121.638 52.9063C121.638 52.626 121.536 52.4004 121.332 52.2295C121.134 52.0586 120.892 51.9731 120.605 51.9731H119.204V53.8395H120.605Z" fill="#0D2833"/>
<path d="M127.504 49.2453C128.261 49.2453 128.871 49.5153 129.334 50.0554C129.805 50.5887 130.04 51.2211 130.04 51.9526C130.04 52.0278 130.033 52.1338 130.02 52.2705H125.53C125.598 52.7901 125.816 53.2037 126.184 53.5114C126.559 53.8122 127.02 53.9626 127.565 53.9626C127.954 53.9626 128.288 53.884 128.567 53.7267C128.854 53.5626 129.069 53.3507 129.212 53.0909L129.805 53.4396C129.58 53.8019 129.273 54.0891 128.884 54.301C128.496 54.513 128.053 54.6189 127.555 54.6189C126.75 54.6189 126.096 54.366 125.591 53.86C125.087 53.3541 124.834 52.7115 124.834 51.9321C124.834 51.1664 125.083 50.5271 125.581 50.0144C126.079 49.5016 126.72 49.2453 127.504 49.2453ZM127.504 49.9016C126.972 49.9016 126.525 50.0623 126.164 50.3836C125.809 50.6981 125.598 51.1083 125.53 51.6142H129.345C129.276 51.0741 129.069 50.6536 128.721 50.3528C128.373 50.052 127.967 49.9016 127.504 49.9016Z" fill="#0D2833"/>
<path d="M136.054 54.6189C135.283 54.6189 134.642 54.3625 134.131 53.8498C133.62 53.3302 133.364 52.691 133.364 51.9321C133.364 51.1732 133.62 50.5374 134.131 50.0246C134.642 49.5051 135.283 49.2453 136.054 49.2453C136.558 49.2453 137.012 49.3683 137.414 49.6144C137.816 49.8537 138.11 50.1785 138.294 50.5887L137.741 50.9066C137.605 50.5989 137.383 50.3562 137.077 50.1785C136.777 49.9939 136.436 49.9016 136.054 49.9016C135.488 49.9016 135.011 50.0999 134.622 50.4964C134.233 50.8861 134.039 51.3646 134.039 51.9321C134.039 52.4995 134.233 52.9815 134.622 53.3781C135.011 53.7677 135.488 53.9626 136.054 53.9626C136.436 53.9626 136.777 53.8737 137.077 53.696C137.377 53.5114 137.612 53.2653 137.782 52.9576L138.345 53.2858C138.133 53.696 137.823 54.0207 137.414 54.26C137.005 54.4993 136.552 54.6189 136.054 54.6189Z" fill="#0D2833"/>
<path d="M143.037 49.3683H143.609V54.4959H142.934V50.5477L139.887 54.4959H139.314V49.3683H139.989V53.3165L143.037 49.3683Z" fill="#0D2833"/>
<path d="M147.42 54.6189C146.649 54.6189 146.009 54.3625 145.497 53.8498C144.986 53.3302 144.73 52.691 144.73 51.9321C144.73 51.1732 144.986 50.5374 145.497 50.0246C146.009 49.5051 146.649 49.2453 147.42 49.2453C147.925 49.2453 148.378 49.3683 148.78 49.6144C149.183 49.8537 149.476 50.1785 149.66 50.5887L149.108 50.9066C148.971 50.5989 148.75 50.3562 148.443 50.1785C148.143 49.9939 147.802 49.9016 147.42 49.9016C146.854 49.9016 146.377 50.0999 145.988 50.4964C145.599 50.8861 145.405 51.3646 145.405 51.9321C145.405 52.4995 145.599 52.9815 145.988 53.3781C146.377 53.7677 146.854 53.9626 147.42 53.9626C147.802 53.9626 148.143 53.8737 148.443 53.696C148.743 53.5114 148.978 53.2653 149.148 52.9576L149.711 53.2858C149.5 53.696 149.189 54.0207 148.78 54.26C148.371 54.4993 147.918 54.6189 147.42 54.6189Z" fill="#0D2833"/>
<path d="M154.262 49.3683V50.0246H152.452V54.4959H151.777V50.0246H149.967V49.3683H154.262Z" fill="#0D2833"/>
<path d="M157.248 49.2453C158.004 49.2453 158.615 49.5153 159.078 50.0554C159.549 50.5887 159.784 51.2211 159.784 51.9526C159.784 52.0278 159.777 52.1338 159.764 52.2705H155.274C155.342 52.7901 155.56 53.2037 155.928 53.5114C156.303 53.8122 156.763 53.9626 157.309 53.9626C157.698 53.9626 158.032 53.884 158.311 53.7267C158.598 53.5626 158.812 53.3507 158.956 53.0909L159.549 53.4396C159.324 53.8019 159.017 54.0891 158.628 54.301C158.24 54.513 157.796 54.6189 157.299 54.6189C156.494 54.6189 155.84 54.366 155.335 53.86C154.83 53.3541 154.578 52.7115 154.578 51.9321C154.578 51.1664 154.827 50.5271 155.325 50.0144C155.823 49.5016 156.463 49.2453 157.248 49.2453ZM157.248 49.9016C156.716 49.9016 156.269 50.0623 155.908 50.3836C155.553 50.6981 155.342 51.1083 155.274 51.6142H159.089C159.02 51.0741 158.812 50.6536 158.465 50.3528C158.117 50.052 157.711 49.9016 157.248 49.9016Z" fill="#0D2833"/>
<path d="M165.869 49.3683V54.4959H165.194V50.4041L163.404 53.3165H163.323L161.533 50.4041V54.4959H160.858V49.3683H161.635L163.363 52.1782L165.092 49.3683H165.869Z" fill="#0D2833"/>
<path d="M169.376 51.3168C169.853 51.3168 170.256 51.4672 170.583 51.768C170.917 52.062 171.084 52.4414 171.084 52.9063C171.084 53.3712 170.917 53.7541 170.583 54.0549C170.256 54.3489 169.853 54.4959 169.376 54.4959H167.3V49.3683H167.975V51.3168H169.376ZM171.8 49.3683H172.475V54.4959H171.8V49.3683ZM169.376 53.8395C169.662 53.8395 169.905 53.7541 170.102 53.5832C170.307 53.4122 170.409 53.1866 170.409 52.9063C170.409 52.626 170.307 52.4004 170.102 52.2295C169.905 52.0586 169.662 51.9731 169.376 51.9731H167.975V53.8395H169.376Z" fill="#0D2833"/>
<path d="M179.107 51.8603C179.701 52.0859 179.997 52.4961 179.997 53.0909C179.997 53.5148 179.83 53.8771 179.496 54.178C179.169 54.4719 178.698 54.6189 178.085 54.6189C177.055 54.6189 176.38 54.2087 176.06 53.3883L176.632 53.0499C176.844 53.6584 177.328 53.9626 178.085 53.9626C178.48 53.9626 178.784 53.8771 178.995 53.7062C179.213 53.5353 179.322 53.3165 179.322 53.0499C179.322 52.8106 179.234 52.6158 179.056 52.4654C178.879 52.3149 178.64 52.2397 178.34 52.2397H177.594V51.5834H178.136C178.429 51.5834 178.657 51.5116 178.821 51.3681C178.992 51.2177 179.077 51.0126 179.077 50.7528C179.077 50.5066 178.978 50.305 178.78 50.1477C178.582 49.9836 178.317 49.9016 177.982 49.9016C177.341 49.9016 176.915 50.158 176.704 50.6707L176.141 50.3426C176.482 49.611 177.096 49.2453 177.982 49.2453C178.521 49.2453 178.951 49.3888 179.271 49.676C179.592 49.9563 179.752 50.3015 179.752 50.7117C179.752 51.2382 179.537 51.621 179.107 51.8603Z" fill="#0D2833"/>
<path d="M185.219 53.8395H185.935V55.87H185.26V54.4959H181.087V55.87H180.412V53.8395H181.036C181.384 53.3815 181.557 52.7354 181.557 51.9013V49.3683H185.219V53.8395ZM181.854 53.8395H184.544V50.0246H182.232V51.9013C182.232 52.6875 182.106 53.3336 181.854 53.8395Z" fill="#0D2833"/>
<path d="M191.154 49.3683H191.829V54.4959H191.154V53.4909C190.684 54.2429 189.995 54.6189 189.088 54.6189C188.359 54.6189 187.735 54.3591 187.216 53.8395C186.705 53.3199 186.449 52.6841 186.449 51.9321C186.449 51.1801 186.705 50.5442 187.216 50.0246C187.735 49.5051 188.359 49.2453 189.088 49.2453C189.995 49.2453 190.684 49.6213 191.154 50.3733V49.3683ZM187.707 53.3781C188.096 53.7677 188.573 53.9626 189.139 53.9626C189.705 53.9626 190.182 53.7677 190.571 53.3781C190.96 52.9815 191.154 52.4995 191.154 51.9321C191.154 51.3646 190.96 50.8861 190.571 50.4964C190.182 50.0999 189.705 49.9016 189.139 49.9016C188.573 49.9016 188.096 50.0999 187.707 50.4964C187.319 50.8861 187.124 51.3646 187.124 51.9321C187.124 52.4995 187.319 52.9815 187.707 53.3781Z" fill="#0D2833"/>
<path d="M196.879 49.3683H197.554V54.4959H196.879V52.2603H193.933V54.4959H193.258V49.3683H193.933V51.6039H196.879V49.3683Z" fill="#0D2833"/>
<path d="M202.704 49.3683H203.277V54.4959H202.602V50.5477L199.554 54.4959H198.981V49.3683H199.656V53.3165L202.704 49.3683Z" fill="#0D2833"/>
<path d="M205.523 48.5479V47.9531H208.182V48.5479H205.523ZM208.427 49.3683H209V54.4959H208.325V50.5477L205.277 54.4959H204.704V49.3683H205.379V53.3165L208.427 49.3683Z" fill="#0D2833"/>
<path d="M81.323 11C85.6498 11 89.2235 12.4461 92.0441 15.3382C94.8647 18.2028 96.275 21.7697 96.275 26.0391C96.275 30.2808 94.8647 33.8478 92.0441 36.7399C89.2235 39.6321 85.6498 41.0781 81.323 41.0781C78.7215 41.0781 76.3254 40.4722 74.1346 39.2602C71.9438 38.0207 70.2323 36.3543 69 34.261L73.8881 31.4102C74.5728 32.6772 75.5723 33.6825 76.8867 34.4262C78.2286 35.1424 79.7074 35.5005 81.323 35.5005C83.6507 35.5005 85.6087 34.8945 87.197 33.6825C88.7853 32.4431 89.8259 30.7766 90.3189 28.6833H77.5029V23.3535H90.3189C89.8259 21.2602 88.7853 19.6075 87.197 18.3956C85.6087 17.1561 83.6507 16.5364 81.323 16.5364C79.7074 16.5364 78.2423 16.9082 76.9278 17.6519C75.6134 18.368 74.6001 19.3734 73.8881 20.668L69 17.8172C70.2323 15.7238 71.9438 14.0712 74.1346 12.8592C76.3527 11.6197 78.7489 11 81.323 11Z" fill="#0D2833"/>
<path d="M96.3815 40.4997V35.2112C98.0794 35.4591 99.3528 35.1148 100.202 34.1783C101.051 33.2418 101.475 31.4102 101.475 28.6833V11.5784H121.028V40.4997H115.4V17.0322H107.103V28.518C107.103 31.0245 106.801 33.1317 106.199 34.8394C105.596 36.5471 104.761 37.8142 103.693 38.6405C102.653 39.4668 101.53 40.0177 100.325 40.2931C99.1474 40.5686 97.8329 40.6374 96.3815 40.4997Z" fill="#0D2833"/>
<path d="M148.828 40.4997H142.296L132.027 26.948V40.4997H126.359V11.5784H132.027V24.3451L141.886 11.5784H148.417L137.778 25.6259L148.828 40.4997Z" fill="#0D2833"/>
<path d="M173.378 36.7399C170.475 39.6321 166.942 41.0781 162.78 41.0781C158.618 41.0781 155.085 39.6321 152.182 36.7399C149.307 33.8203 147.869 30.2533 147.869 26.0391C147.869 21.8248 149.307 18.2716 152.182 15.3795C155.085 12.4598 158.618 11 162.78 11C166.942 11 170.475 12.4598 173.378 15.3795C176.281 18.2716 177.732 21.8248 177.732 26.0391C177.732 30.2533 176.281 33.8203 173.378 36.7399ZM156.167 32.8562C157.947 34.619 160.151 35.5005 162.78 35.5005C165.409 35.5005 167.613 34.619 169.393 32.8562C171.173 31.0659 172.063 28.7935 172.063 26.0391C172.063 23.2847 171.173 21.0123 169.393 19.2219C167.613 17.4315 165.409 16.5364 162.78 16.5364C160.151 16.5364 157.947 17.4315 156.167 19.2219C154.387 21.0123 153.497 23.2847 153.497 26.0391C153.497 28.7935 154.387 31.0659 156.167 32.8562Z" fill="#0D2833"/>
<path d="M209.854 11.5784V40.4997H204.226V21.7422L196.134 35.1699H195.477L187.385 21.7835V40.4997H181.716V11.5784H187.549L195.805 25.2541L204.021 11.5784H209.854Z" fill="#0D2833"/>
</g>
<path d="M13.8125 8.125H6.5V43.875H19.5V35.75H13.8125V8.125Z" fill="#087E5E"/>
<path fill-rule="evenodd" clip-rule="evenodd" d="M52 0H0V52H52V0ZM48.75 3.25H3.25V48.75H48.75V3.25Z" fill="#087E5E"/>
<path d="M25.9342 43.875C24.7777 43.875 23.8224 43.4844 23.0684 42.7031C22.3145 41.9219 21.9375 40.9583 21.9375 39.8125C21.9375 38.6592 22.3145 37.6957 23.0684 36.9219C23.8224 36.1406 24.7777 35.75 25.9342 35.75C26.6297 35.75 27.2702 35.9174 27.8558 36.2522C28.4487 36.5796 28.9098 37.026 29.2393 37.5915L27.9326 38.3616C27.7423 38.0119 27.4715 37.7403 27.1201 37.5469C26.7687 37.346 26.3735 37.2455 25.9342 37.2455C25.1876 37.2455 24.5837 37.4836 24.1225 37.9598C23.6687 38.436 23.4418 39.0536 23.4418 39.8125C23.4418 40.564 23.6687 41.1778 24.1225 41.654C24.5837 42.1302 25.1876 42.3683 25.9342 42.3683C26.3735 42.3683 26.7687 42.2716 27.1201 42.0781C27.4788 41.8772 27.7496 41.6057 27.9326 41.2634L29.2393 42.0335C28.9098 42.599 28.4523 43.0491 27.8667 43.3839C27.2811 43.7113 26.637 43.875 25.9342 43.875Z" fill="#087E5E"/>
<path d="M36.5623 42.7031C35.7864 43.4844 34.8421 43.875 33.7294 43.875C32.6168 43.875 31.6725 43.4844 30.8966 42.7031C30.128 41.9144 29.7436 40.9509 29.7436 39.8125C29.7436 38.6741 30.128 37.7143 30.8966 36.933C31.6725 36.1443 32.6168 35.75 33.7294 35.75C34.8421 35.75 35.7864 36.1443 36.5623 36.933C37.3382 37.7143 37.7262 38.6741 37.7262 39.8125C37.7262 40.9509 37.3382 41.9144 36.5623 42.7031ZM31.9616 41.654C32.4374 42.1302 33.0267 42.3683 33.7294 42.3683C34.4321 42.3683 35.0214 42.1302 35.4972 41.654C35.973 41.1704 36.2109 40.5565 36.2109 39.8125C36.2109 39.0685 35.973 38.4546 35.4972 37.971C35.0214 37.4874 34.4321 37.2455 33.7294 37.2455C33.0267 37.2455 32.4374 37.4874 31.9616 37.971C31.4858 38.4546 31.2479 39.0685 31.2479 39.8125C31.2479 40.5565 31.4858 41.1704 31.9616 41.654Z" fill="#087E5E"/>
<path d="M46.3125 35.9062V43.7188H44.8082V38.6518L42.6452 42.279H42.4695L40.3064 38.6629V43.7188H38.7911V35.9062H40.3503L42.5573 39.6004L44.7533 35.9062H46.3125Z" fill="#087E5E"/>
<defs>
<clipPath id="clip0_666_2311">
<rect width="141" height="30" fill="white" transform="translate(69 11)"/>
</clipPath>
</defs>
</svg>
